<?xml version="1.0" encoding="UTF-8" standalone="no"?>
<svg width="337px" height="33px" viewBox="0 0 337 33" version="1.1" xmlns="http://www.w3.org/2000/svg" xmlns:xlink="http://www.w3.org/1999/xlink" xmlns:sketch="http://www.bohemiancoding.com/sketch/ns">
    <title>Slice 1</title>
    <description>Created with Sketch (http://www.bohemiancoding.com/sketch)</description>
    <defs></defs>
    <g id="Page-1" stroke="none" stroke-width="1" fill="none" fill-rule="evenodd" sketch:type="MSPage">
        <path d="M229.63687,23.301913 C229.63687,31.4257391 235.171478,32.3328696 240.010435,32.3328696 L246.752,32.3328696 C253.666783,32.3328696 257.858783,30.8205217 257.858783,25.7652174 L257.858783,25.3325217 L254.143304,25.3325217 C253.925565,28.7036522 252.023652,29.3081739 247.356522,29.3081739 L242.258783,29.3081739 C235.776,29.3081739 233.353043,28.0121739 233.353043,22.9986087 L233.353043,21.6170435 L257.858783,21.6170435 L257.858783,19.1523478 C257.858783,11.2886957 253.062261,9.60313043 246.40487,9.60313043 L240.440348,9.60313043 C235.171478,9.60313043 229.63687,10.5088696 229.63687,18.5046957 L229.63687,23.301913 L229.63687,23.301913 Z M254.143304,18.5909565 L233.353043,18.5909565 C233.700174,13.5787826 235.083826,12.6278261 240.960696,12.6278261 L246.40487,12.6278261 C252.457739,12.6278261 254.143304,14.8754783 254.143304,17.1203478 L254.143304,18.5909565 L254.143304,18.5909565 Z" id="Fill-1" fill="#FFFFFF" sketch:type="MSShapeGroup"></path>
        <path d="M290.874435,0.700173913 L287.158957,0.700173913 L287.158957,12.8866087 L287.071304,12.8866087 C286.291478,10.5965217 284.262957,9.60313043 280.026435,9.60313043 L274.365913,9.60313043 C265.421217,9.60313043 262.697739,12.1088696 262.697739,19.1523478 L262.697739,23.0431304 C262.697739,30.648 267.408,32.3328696 274.148174,32.3328696 L279.334261,32.3328696 C283.225043,32.3328696 286.249739,31.1669565 287.330087,28.4873043 L287.417043,28.4873043 L287.417043,31.9878261 L290.874435,31.9878261 L290.874435,0.700173913 L290.874435,0.700173913 Z M266.414609,18.6765217 C266.414609,13.5787826 268.963478,12.6278261 274.064,12.6278261 L279.075478,12.6278261 C284.089043,12.6278261 287.158957,13.4911304 287.158957,18.7634783 L287.158957,22.9554783 C287.158957,26.9756522 285.385739,29.3081739 279.855304,29.3081739 L273.802435,29.3081739 C267.753739,29.3081739 266.414609,27.2768696 266.414609,22.9986087 L266.414609,18.6765217 L266.414609,18.6765217 Z" id="Fill-2" fill="#FFFFFF" sketch:type="MSShapeGroup"></path>
        <path d="M298.392348,0.700173913 L302.109913,0.700173913 L302.109913,4.7613913 L298.392348,4.7613913 L298.392348,0.700173913 Z M298.392348,9.94747826 L302.109913,9.94747826 L302.109913,31.9878261 L298.392348,31.9878261 L298.392348,9.94747826 Z" id="Fill-3" fill="#FFFFFF" sketch:type="MSShapeGroup"></path>
        <path d="M332.401391,31.9878261 L336.118261,31.9878261 L336.118261,17.208 C336.118261,10.6382609 331.450435,9.60313043 324.537739,9.60313043 L318.66087,9.60313043 C312.004174,9.60313043 309.454609,11.2448696 309.454609,15.2636522 L309.454609,16.344 L313.171478,16.344 L313.171478,15.5662609 C313.171478,13.7506087 314.077217,12.6278261 318.745043,12.6278261 L324.192,12.6278261 C329.894261,12.6278261 332.401391,13.1453913 332.401391,17.1203478 L332.401391,21.2706087 L332.314435,21.2706087 C331.019826,19.1523478 329.289739,18.6347826 324.450783,18.6347826 L318.486957,18.6347826 C312.004174,18.6347826 308.462609,19.2393043 308.462609,24.2528696 L308.462609,25.7213913 C308.462609,29.8695652 309.93113,32.3328696 315.549217,32.3328696 L324.450783,32.3328696 C330.153739,32.3328696 331.321043,31.7714783 332.314435,29.784 L332.401391,29.784 L332.401391,31.9878261 L332.401391,31.9878261 Z M332.401391,26.0678261 C332.401391,28.8330435 329.810783,29.3081739 323.06713,29.3081739 L318.140522,29.3081739 C313.042087,29.3081739 312.178087,28.2702609 312.178087,25.8083478 L312.178087,25.1168696 C312.178087,22.3502609 313.517913,21.6587826 318.31513,21.6587826 L324.017391,21.6587826 C329.72313,21.6587826 332.401391,22.0490435 332.401391,25.0744348 L332.401391,26.0678261 L332.401391,26.0678261 Z" id="Fill-4" fill="#FFFFFF" sketch:type="MSShapeGroup"></path>
        <path d="M50.9613913,18.7071304 C50.9613913,10.712 56.5801739,9.80556522 62.0257391,9.80556522 L68.2483478,9.80556522 C75.1610435,9.80556522 77.8845217,12.6132174 77.8845217,17.2810435 L77.8845217,17.8855652 L74.4271304,17.8855652 L74.4271304,17.368 C74.4271304,13.6942609 72.0076522,12.8302609 68.2914783,12.8302609 L61.4629565,12.8302609 C57.9624348,12.8302609 54.6782609,13.3478261 54.6782609,18.8372174 L54.6782609,23.4605217 C54.6782609,28.3871304 57.7043478,29.5106087 62.1968696,29.5106087 L68.464,29.5106087 C71.92,29.5106087 74.8166957,28.4726957 74.8166957,24.8873043 L74.8166957,24.1513043 L78.2733913,24.1513043 L78.2733913,24.8017391 C78.2733913,30.3753043 75.5074783,32.536 68.5933913,32.536 L60.2107826,32.536 C56.8827826,32.536 50.9613913,31.6274783 50.9613913,23.6337391 L50.9613913,18.7071304" id="Fill-5" fill="#FFFFFF" sketch:type="MSShapeGroup"></path>
        <path d="M106.753391,32.1895652 L110.467478,32.1895652 L110.467478,17.4104348 C110.467478,10.8406957 105.802435,9.80556522 98.8876522,9.80556522 L93.010087,9.80556522 C86.3561739,9.80556522 83.8045217,11.4473043 83.8045217,15.466087 L83.8045217,16.5471304 L87.5206957,16.5471304 L87.5206957,15.7686957 C87.5206957,13.9530435 88.429913,12.8302609 93.0977391,12.8302609 L98.5412174,12.8302609 C104.246957,12.8302609 106.753391,13.3478261 106.753391,17.3227826 L106.753391,21.4730435 L106.666435,21.4730435 C105.369043,19.3547826 103.641739,18.8372174 98.8,18.8372174 L92.8389565,18.8372174 C86.3561739,18.8372174 82.8111304,19.4417391 82.8111304,24.4553043 L82.8111304,25.9238261 C82.8111304,30.072 84.2796522,32.536 89.8984348,32.536 L98.8,32.536 C104.506435,32.536 105.670261,31.9746087 106.666435,29.9864348 L106.753391,29.9864348 L106.753391,32.1895652 L106.753391,32.1895652 Z M106.753391,26.2702609 C106.753391,29.0354783 104.16,29.5106087 97.4191304,29.5106087 L92.4925217,29.5106087 C87.392,29.5106087 86.528,28.4726957 86.528,26.0107826 L86.528,25.3193043 C86.528,22.5533913 87.8671304,21.8612174 92.6636522,21.8612174 L98.3693913,21.8612174 C104.073043,21.8612174 106.753391,22.2514783 106.753391,25.2768696 L106.753391,26.2702609 L106.753391,26.2702609 Z" id="Fill-6" fill="#FFFFFF" sketch:type="MSShapeGroup"></path>
        <path d="M144.220522,0.902608696 L140.504348,0.902608696 L140.504348,13.0890435 L140.416696,13.0890435 C139.637565,10.7989565 137.609043,9.80556522 133.371826,9.80556522 L127.711304,9.80556522 C118.767304,9.80556522 116.043826,12.3113043 116.043826,19.3547826 L116.043826,23.2455652 C116.043826,30.8504348 120.753391,32.536 127.494261,32.536 L132.679652,32.536 C136.570435,32.536 139.595826,31.3693913 140.675478,28.6904348 L140.76313,28.6904348 L140.76313,32.1895652 L144.220522,32.1895652 L144.220522,0.902608696 L144.220522,0.902608696 Z M119.76,18.8789565 C119.76,13.7812174 122.309565,12.8302609 127.410087,12.8302609 L132.42087,12.8302609 C137.434435,12.8302609 140.504348,13.6942609 140.504348,18.965913 L140.504348,23.1593043 C140.504348,27.178087 138.731826,29.5106087 133.200696,29.5106087 L127.148522,29.5106087 C121.099826,29.5106087 119.76,27.48 119.76,23.2010435 L119.76,18.8789565 L119.76,18.8789565 Z" id="Fill-7" fill="#FFFFFF" sketch:type="MSShapeGroup"></path>
        <path d="M150.224696,23.5043478 C150.224696,31.6274783 155.755826,32.536 160.597565,32.536 L167.338435,32.536 C174.253913,32.536 178.44313,31.0229565 178.44313,25.9676522 L178.44313,25.5349565 L174.729043,25.5349565 C174.513391,28.906087 172.610783,29.5106087 167.943652,29.5106087 L162.845913,29.5106087 C156.361043,29.5106087 153.94087,28.2146087 153.94087,23.2010435 L153.94087,21.8194783 L178.44313,21.8194783 L178.44313,19.3547826 C178.44313,11.4911304 173.649391,9.80556522 166.992696,9.80556522 L161.028174,9.80556522 C155.755826,9.80556522 150.224696,10.712 150.224696,18.7071304 L150.224696,23.5043478 L150.224696,23.5043478 Z M174.729043,18.7933913 L153.94087,18.7933913 C154.287304,13.7812174 155.671652,12.8302609 161.549217,12.8302609 L166.992696,12.8302609 C173.042087,12.8302609 174.729043,15.077913 174.729043,17.3227826 L174.729043,18.7933913 L174.729043,18.7933913 Z" id="Fill-8" fill="#FFFFFF" sketch:type="MSShapeGroup"></path>
        <path d="M11.490087,16.0803478 L11.490087,14.2612174 C11.490087,11.4048696 13.2368696,8.99165217 15.3036522,8.99165217 L37.3453913,8.99165217 C39.4121739,8.99165217 41.1589565,11.4048696 41.1589565,14.2612174 L41.1589565,16.0803478 L11.490087,16.0803478 L11.490087,16.0803478 Z M37.3453913,5.048 L15.3036522,5.048 C11.0267826,5.048 7.54643478,9.18086957 7.54643478,14.2612174 L7.54643478,16.0803478 L0,16.0803478 L0,19.0382609 L7.54643478,19.0382609 L7.54643478,33 L11.490087,33 L11.490087,19.0382609 L41.1589565,19.0382609 L41.1589565,33 L45.1026087,33 L45.1026087,14.2612174 C45.1026087,9.18086957 41.6229565,5.048 37.3453913,5.048 L37.3453913,5.048 Z" id="Fill-10" fill="#FFFFFF" sketch:type="MSShapeGroup"></path>
        <path d="M216.672696,5.18017391 L192.760348,5.18017391 C188.212174,5.18017391 184.512696,9.28869565 184.512696,14.3391304 L184.512696,33 L188.457043,33 L188.457043,14.3391304 C188.457043,11.464 190.387478,9.12382609 192.760348,9.12382609 L202.966261,9.12382609 L202.966261,19.6142609 L206.909217,19.6142609 L206.909217,9.12382609 L216.672696,9.12382609 C219.046261,9.12382609 220.978783,11.464 220.978783,14.3391304 L220.978783,33 L224.921739,33 L224.921739,14.3391304 C224.921739,9.28869565 221.221565,5.18017391 216.672696,5.18017391" id="Fill-11" fill="#FFFFFF" sketch:type="MSShapeGroup"></path>
    </g>
</svg>